<svg xmlns="http://www.w3.org/2000/svg" height="40px" viewBox="0 -960 960 960" width="40px" fill="#e3e3e3"><path d="M480-241.33q-63.33 0-121.67 21.5Q300-198.33 250-156v9.33h460V-156q-50-42.33-108.33-63.83-58.34-21.5-121.67-21.5Zm136-43.34q63.67 23.34 117.33 64v-592.66H226.67v592.66q53.66-40.66 117.33-64Q407.67-308 480-308t136 23.33Zm-185.5-190.5q-21.17-21.16-21.17-50.83 0-29.67 21.17-50.83Q451.67-598 481.33-598q29.67 0 50.84 21.17 21.16 21.16 21.16 50.83 0 29.67-21.16 50.83Q511-454 481.33-454q-29.66 0-50.83-21.17ZM226.67-80q-27 0-46.84-19.83Q160-119.67 160-146.67v-666.66q0-27 19.83-46.84Q199.67-880 226.67-880h506.66q27 0 46.84 19.83Q800-840.33 800-813.33v666.66q0 27-19.83 46.84Q760.33-80 733.33-80H226.67Zm353-347.67Q620-468 620-526t-40.33-98.33q-40.34-40.34-98.34-40.34T383-624.33Q342.67-584 342.67-526T383-427.67q40.33 40.34 98.33 40.34t98.34-40.34ZM480-526Z"/></svg>